Land_normalized_Motion_pl06
version=1
nRows=23
nColumns=43
inDegrees=yes
endheader
time		pelvis_tilt		pelvis_list		pelvis_rotation		pelvis_tx		pelvis_ty		pelvis_tz		hip_flexion_r		hip_adduction_r		hip_rotation_r		knee_angle_r		ankle_angle_r		subtalar_angle_r		mtp_angle_r		hip_flexion_l		hip_adduction_l		hip_rotation_l		knee_angle_l		ankle_angle_l		subtalar_angle_l		mtp_angle_l		lumbar_extension		lumbar_bending		lumbar_rotation		neck_flexion		neck_lateral_bending		neck_rotation		arm_flex_r		arm_add_r		arm_rot_r		elbow_flex_r		pro_sup_r		wrist_flex_r		wrist_dev_r		hand_finger_flex_r		arm_flex_l		arm_add_l		arm_rot_l		elbow_flex_l		pro_sup_l		wrist_flex_l		wrist_dev_l		hand_finger_flex_l		
0.884167		1.558690		9.177573		83.845203		0.002275		0.644154		0.517158		68.659171		1.978182		-0.794521		-105.439620		12.375706		-8.339937		8.229397		64.953880		-5.855665		1.980478		-104.524400		17.271954		5.356989		18.008618		-54.297311		1.180796		8.448468		16.494273		-2.495384		-4.192333		-1.302869		-22.218292		-28.008427		85.548500		97.601702		1.793094		-23.305151		-7.879535		-6.817729		-17.404309		-12.168456		68.209534		124.992163		-42.948767		-14.496883		-6.618548		
0.887323		1.734462		9.558315		84.187281		0.001561		0.637042		0.515034		69.249317		1.825848		-0.739469		-106.956271		12.337629		-7.831389		8.784820		65.813765		-5.491790		2.603760		-106.198410		16.825477		5.812773		18.492140		-55.379043		1.510024		8.404495		17.372394		-2.551002		-4.160926		0.582181		-22.764105		-27.527927		86.183562		97.368983		1.841080		-23.206557		-7.852523		-4.664412		-17.819841		-11.565144		68.669738		125.177497		-42.861264		-14.586486		-6.396349		
0.890480		1.827085		9.904916		84.415813		0.001008		0.630070		0.512938		69.827053		1.785928		-0.560806		-108.380994		12.409811		-7.552464		9.034273		66.638141		-5.236435		3.020395		-107.795872		16.590109		6.095638		18.730590		-56.364392		1.685571		8.352291		18.081972		-2.481350		-4.193654		2.563564		-23.357058		-26.914884		86.671892		97.307933		1.950240		-23.112007		-7.810172		-2.496246		-18.315079		-10.892462		69.030254		125.431105		-42.594887		-14.732091		-6.259190		
0.893636		2.027231		10.281277		84.836203		0.000085		0.623196		0.510835		70.308116		1.538230		-0.524933		-109.772608		12.432641		-6.843915		10.612788		67.518448		-4.848333		3.668079		-109.362712		15.891224		6.686216		20.731821		-57.378329		2.117328		8.297446		18.795603		-2.488269		-4.145614		4.473972		-24.005965		-26.234995		87.275131		96.697207		1.814915		-22.727269		-7.481298		-0.316162		-18.780665		-10.109298		69.418804		125.956195		-42.859414		-14.443519		-6.004778		
0.896793		2.170468		10.685350		85.389237		-0.000994		0.616399		0.508675		70.740252		1.124888		-0.479091		-111.170462		12.471071		-6.078339		12.429010		68.372775		-4.327807		4.309233		-110.881591		15.120338		7.403584		23.087310		-58.382383		2.606469		8.138377		19.439165		-2.481229		-4.088687		6.391368		-24.591471		-25.571110		87.852577		96.219669		1.614894		-22.370137		-7.025740		1.821523		-19.270869		-9.338302		69.854544		126.547718		-43.168821		-14.173392		-5.727073		
0.899949		2.197399		11.089120		85.860423		-0.001797		0.609830		0.506601		71.171586		0.773915		-0.311482		-112.535827		12.680992		-5.380254		12.760397		69.137406		-3.865155		4.772709		-112.313565		14.658159		8.124719		23.487169		-59.355675		2.932159		7.882925		20.021916		-2.397977		-4.019409		8.443462		-25.099185		-24.872746		88.291490		96.534903		1.658354		-22.230513		-6.819818		3.918034		-19.830689		-8.671301		70.242004		126.884224		-43.078054		-14.294533		-5.760941		
0.903106		2.208040		11.443012		86.156082		-0.002270		0.603482		0.504659		71.615319		0.608511		-0.114499		-113.779723		12.859480		-4.970049		13.018925		69.869967		-3.628559		5.064990		-113.669377		14.405601		8.625857		23.804701		-60.266514		3.087831		7.755766		20.579067		-2.244902		-4.005472		10.496700		-25.662728		-24.146144		88.630949		96.818402		1.731465		-22.070482		-6.670126		6.072915		-20.386944		-7.944353		70.588271		127.279070		-42.929908		-14.357309		-5.799541		
0.906263		2.207532		11.851703		86.589761		-0.002992		0.597381		0.502692		71.944779		0.262059		0.046493		-115.002981		13.146434		-4.229443		13.540330		70.530953		-3.249378		5.441735		-114.962817		14.028168		9.505460		24.474936		-61.207025		3.369372		7.509222		21.064418		-2.125286		-3.902004		12.607079		-26.148802		-23.380008		88.959419		97.313576		1.704044		-21.818141		-6.417029		8.196422		-20.977358		-7.161081		70.931550		127.815591		-43.036429		-14.168970		-5.997551		
0.909419		2.088191		12.241164		86.921225		-0.003436		0.591367		0.500788		72.326337		0.004032		0.295574		-116.202416		13.251273		-3.878192		13.858434		71.169001		-2.958115		5.641438		-116.189782		13.488443		10.315600		24.871350		-62.080164		3.471214		7.275106		21.395126		-2.036873		-3.850463		14.663783		-26.590376		-22.655869		89.233455		97.813764		1.729408		-21.666013		-6.268184		10.349239		-21.592517		-6.362345		71.262735		128.294696		-42.819436		-14.091013		-6.020633		
0.912576		1.989087		12.492361		87.116401		-0.003649		0.585385		0.498946		72.822281		-0.122776		0.494030		-117.314178		13.429242		-3.733898		14.108344		71.841973		-2.817850		5.766075		-117.346465		13.356903		10.749156		25.207597		-62.834295		3.464869		7.140872		21.884487		-1.865969		-3.857298		16.680397		-27.082969		-21.910770		89.476170		98.237746		1.811386		-21.567648		-6.147525		12.523144		-22.105104		-5.666031		71.551714		128.685553		-42.488076		-14.052079		-5.971727		
0.915732		1.670858		12.766705		87.328848		-0.003961		0.579431		0.497080		73.337996		-0.363444		0.915456		-118.457823		13.509007		-3.399548		15.714649		72.454691		-2.618115		5.700594		-118.404620		12.824989		11.587526		27.721020		-63.526677		3.346214		6.715970		22.139305		-1.752377		-3.656212		18.856242		-27.320302		-21.113862		89.565754		99.873453		1.514911		-21.762528		-5.642477		14.520196		-22.771040		-4.879584		72.109221		129.882823		-42.266631		-12.802881		-6.051713		
0.918889		1.365796		12.940198		87.519687		-0.004199		0.573337		0.495230		73.973696		-0.574111		1.235756		-119.594361		13.632456		-3.496165		15.884171		73.139370		-2.449923		5.619683		-119.470877		12.696034		12.295565		28.052158		-64.092619		3.207242		6.438041		22.364998		-1.639738		-3.672184		20.778510		-27.781887		-20.302049		89.747357		100.094568		1.552987		-21.651323		-5.603026		16.608784		-23.315572		-4.148283		72.456684		130.005403		-41.588066		-12.811101		-5.834487		
0.922045		1.135204		13.042276		87.593702		-0.004251		0.567436		0.493502		74.647313		-0.671150		1.475537		-120.643989		13.779755		-3.559182		15.993109		73.836233		-2.426282		5.545972		-120.474531		12.667467		12.722154		28.274878		-64.630359		3.018935		6.257208		22.770238		-1.492481		-3.671471		22.708255		-28.211597		-19.504635		89.920443		100.366898		1.605725		-21.616641		-5.566028		18.690174		-23.735511		-3.538949		72.781373		130.095245		-41.024196		-12.775671		-5.661285		
0.925202		0.637881		13.077993		87.639434		-0.004166		0.561101		0.491694		75.533034		-0.780863		2.002588		-121.807114		13.855560		-3.655825		16.130557		74.588961		-2.407687		5.234708		-121.467740		12.539452		13.616207		28.698844		-64.980262		2.626468		5.791508		22.836191		-1.405768		-3.552955		24.644734		-28.503961		-18.551270		89.966396		100.845039		1.418303		-21.737909		-5.585970		20.554557		-24.362534		-2.865826		73.335810		129.935514		-40.332467		-12.353490		-5.459519		
0.928359		0.352358		13.077555		87.638333		-0.004022		0.555157		0.490037		76.349604		-0.822866		2.284054		-122.835870		13.961893		-3.712416		16.216634		75.321671		-2.477053		5.084170		-122.398051		12.585885		14.049420		28.999153		-65.377924		2.333059		5.523486		23.201236		-1.216031		-3.501252		26.545403		-28.821321		-17.661472		90.063087		101.148800		1.332936		-21.855986		-5.580137		22.435644		-24.770104		-2.396163		73.784687		129.864134		-39.940272		-12.135870		-5.398980		
0.931515		-0.010689		13.039688		87.626151		-0.003742		0.549078		0.488328		77.248350		-0.843339		2.645387		-123.894736		14.038806		-3.767333		16.314972		76.073251		-2.566174		4.864178		-123.323730		12.612078		14.642649		29.406758		-65.683223		1.970219		5.145168		23.425552		-1.047733		-3.389293		28.422027		-29.049300		-16.701053		90.088367		101.490477		1.118171		-22.048727		-5.597350		24.171408		-25.241887		-1.963680		74.326398		129.676910		-39.636715		-11.764564		-5.408385		
0.934672		-0.345757		12.957128		87.575126		-0.003417		0.542897		0.486552		78.200050		-0.816924		2.988951		-124.951080		14.117906		-3.815584		16.403519		76.851710		-2.720493		4.674855		-124.253709		12.709742		15.295139		29.894819		-65.915922		1.608239		4.728080		23.582445		-0.906815		-3.235561		30.305467		-29.224966		-15.624228		90.060070		101.780966		0.784097		-22.278129		-5.618018		25.737963		-25.771028		-1.550161		74.912493		129.439017		-39.693272		-11.361438		-5.618029		
0.937828		-0.507686		12.928774		87.583443		-0.003152		0.537434		0.484964		78.948311		-0.827036		3.096521		-125.853840		14.250570		-3.856923		16.456308		77.487486		-2.824062		4.627695		-125.087294		12.874686		15.586770		30.180361		-66.275886		1.402650		4.533782		23.937794		-0.702089		-3.188744		32.053917		-29.396264		-14.828870		90.162398		101.944725		0.649746		-22.372740		-5.592020		27.455739		-25.987452		-1.305978		75.283600		129.336835		-39.729334		-11.212573		-5.747595		
0.940985		-0.738661		12.833719		87.537257		-0.002802		0.531624		0.483196		79.825521		-0.775754		3.310290		-126.819180		14.377831		-3.909779		16.506980		78.177512		-2.995733		4.523984		-125.946483		13.126585		16.175427		30.717511		-66.493838		1.125643		4.156441		24.111889		-0.576663		-3.024147		33.840363		-29.469105		-13.757121		90.136692		102.117659		0.204178		-22.562912		-5.563366		28.885950		-26.441812		-0.981723		75.805263		129.001043		-40.204929		-10.880410		-6.094949		
0.944141		-0.873316		12.787086		87.518367		-0.002556		0.526228		0.481490		80.556123		-0.746378		3.413573		-127.704077		14.572362		-3.977943		16.511858		78.761225		-3.151514		4.471982		-126.752782		13.451949		16.551849		31.121247		-66.790957		0.940105		3.934437		24.367707		-0.485417		-2.960613		35.505724		-29.594110		-12.864436		90.209421		102.177851		-0.117877		-22.627401		-5.473371		30.352737		-26.755426		-0.689640		76.282527		128.621977		-40.564809		-10.750738		-6.250336		
0.947298		-0.969153		12.742144		87.520118		-0.002369		0.521230		0.479902		81.205287		-0.731437		3.470173		-128.513072		14.768493		-4.036763		16.507514		79.294364		-3.272098		4.434310		-127.466492		13.724159		16.801517		31.423559		-67.117360		0.796922		3.794144		24.670242		-0.360758		-2.928836		37.092275		-29.701829		-12.119812		90.330250		102.212657		-0.334332		-22.657005		-5.373789		31.862418		-26.926463		-0.449053		76.694437		128.283909		-40.751562		-10.689181		-6.294057		
0.950455		-1.048671		12.744340		87.543455		-0.002270		0.516339		0.478250		81.763006		-0.703366		3.547831		-129.323251		15.158845		-4.069837		15.969420		79.753663		-3.393831		4.395444		-128.171240		13.930662		16.967843		33.143302		-67.463337		0.722604		3.550604		24.931829		-0.378362		-2.743424		38.751181		-29.843774		-10.886291		90.312799		101.640160		-1.920473		-22.844380		-3.754883		33.222162		-27.339284		0.061705		77.099816		126.000758		-41.752565		-11.473665		-5.133374		
0.953611		-1.116637		12.658610		87.508710		-0.002038		0.511617		0.476737		82.381499		-0.587964		3.616883		-130.050467		15.393241		-4.121092		15.966539		80.264404		-3.574124		4.320763		-128.825301		14.282501		17.094346		33.238537		-67.743653		0.559130		3.525709		25.266043		-0.299068		-2.863802		40.127712		-29.986419		-10.347272		90.529834		101.687096		-1.873124		-22.739402		-3.647605		34.669835		-27.383042		0.230245		77.560212		125.798599		-41.600985		-11.373522		-4.986506		
